<svg width="1393" height="169" viewBox="0 0 1393 169" fill="none" xmlns="http://www.w3.org/2000/svg">
<g clip-path="url(#clip0_1_8)">
<path d="M6.02 84.14C6.02 74.62 8.16667 66.08 12.46 58.52C16.7533 50.8667 22.5867 44.8933 29.96 40.6C37.4267 36.3067 45.6867 34.16 54.74 34.16C65.38 34.16 74.6667 36.7267 82.6 41.86C90.5333 46.9933 96.32 54.2733 99.96 63.7H84.7C81.9933 57.82 78.0733 53.2933 72.94 50.12C67.9 46.9467 61.8333 45.36 54.74 45.36C47.9267 45.36 41.8133 46.9467 36.4 50.12C30.9867 53.2933 26.74 57.82 23.66 63.7C20.58 69.4867 19.04 76.3 19.04 84.14C19.04 91.8867 20.58 98.7 23.66 104.58C26.74 110.367 30.9867 114.847 36.4 118.02C41.8133 121.193 47.9267 122.78 54.74 122.78C61.8333 122.78 67.9 121.24 72.94 118.16C78.0733 114.987 81.9933 110.46 84.7 104.58H99.96C96.32 113.913 90.5333 121.147 82.6 126.28C74.6667 131.32 65.38 133.84 54.74 133.84C45.6867 133.84 37.4267 131.74 29.96 127.54C22.5867 123.247 16.7533 117.32 12.46 109.76C8.16667 102.2 6.02 93.66 6.02 84.14ZM152.385 134.26C145.198 134.26 138.665 132.627 132.785 129.36C126.998 126.093 122.425 121.473 119.065 115.5C115.798 109.433 114.165 102.433 114.165 94.5C114.165 86.66 115.845 79.7533 119.205 73.78C122.658 67.7133 127.325 63.0933 133.205 59.92C139.085 56.6533 145.665 55.02 152.945 55.02C160.225 55.02 166.805 56.6533 172.685 59.92C178.565 63.0933 183.185 67.6667 186.545 73.64C189.998 79.6133 191.725 86.5667 191.725 94.5C191.725 102.433 189.951 109.433 186.405 115.5C182.951 121.473 178.238 126.093 172.265 129.36C166.291 132.627 159.665 134.26 152.385 134.26ZM152.385 123.06C156.958 123.06 161.251 121.987 165.265 119.84C169.278 117.693 172.498 114.473 174.925 110.18C177.445 105.887 178.705 100.66 178.705 94.5C178.705 88.34 177.491 83.1133 175.065 78.82C172.638 74.5267 169.465 71.3533 165.545 69.3C161.625 67.1533 157.378 66.08 152.805 66.08C148.138 66.08 143.845 67.1533 139.925 69.3C136.098 71.3533 133.018 74.5267 130.685 78.82C128.351 83.1133 127.185 88.34 127.185 94.5C127.185 100.753 128.305 106.027 130.545 110.32C132.878 114.613 135.958 117.833 139.785 119.98C143.611 122.033 147.811 123.06 152.385 123.06ZM221.215 68.74C223.455 64.3533 226.629 60.9467 230.735 58.52C234.935 56.0933 240.022 54.88 245.995 54.88V68.04H242.635C228.355 68.04 221.215 75.7867 221.215 91.28V133H208.475V56.28H221.215V68.74ZM273.442 70.42C275.962 66.0333 279.695 62.3933 284.642 59.5C289.682 56.5133 295.515 55.02 302.142 55.02C308.955 55.02 315.115 56.6533 320.622 59.92C326.222 63.1867 330.609 67.8067 333.782 73.78C336.955 79.66 338.542 86.52 338.542 94.36C338.542 102.107 336.955 109.013 333.782 115.08C330.609 121.147 326.222 125.86 320.622 129.22C315.115 132.58 308.955 134.26 302.142 134.26C295.609 134.26 289.822 132.813 284.782 129.92C279.835 126.933 276.055 123.247 273.442 118.86V169.4H260.702V56.28H273.442V70.42ZM325.522 94.36C325.522 88.5733 324.355 83.5333 322.022 79.24C319.689 74.9467 316.515 71.68 312.502 69.44C308.582 67.2 304.242 66.08 299.482 66.08C294.815 66.08 290.475 67.2467 286.462 69.58C282.542 71.82 279.369 75.1333 276.942 79.52C274.609 83.8133 273.442 88.8067 273.442 94.5C273.442 100.287 274.609 105.373 276.942 109.76C279.369 114.053 282.542 117.367 286.462 119.7C290.475 121.94 294.815 123.06 299.482 123.06C304.242 123.06 308.582 121.94 312.502 119.7C316.515 117.367 319.689 114.053 322.022 109.76C324.355 105.373 325.522 100.24 325.522 94.36ZM432.031 133H419.291L368.051 55.3V133H355.311V35.28H368.051L419.291 112.84V35.28H432.031V133ZM523.749 91.7C523.749 94.1267 523.609 96.6933 523.329 99.4H462.009C462.475 106.96 465.042 112.887 469.709 117.18C474.469 121.38 480.209 123.48 486.929 123.48C492.435 123.48 497.009 122.22 500.649 119.7C504.382 117.087 506.995 113.633 508.489 109.34H522.209C520.155 116.713 516.049 122.733 509.889 127.4C503.729 131.973 496.075 134.26 486.929 134.26C479.649 134.26 473.115 132.627 467.329 129.36C461.635 126.093 457.155 121.473 453.889 115.5C450.622 109.433 448.989 102.433 448.989 94.5C448.989 86.5667 450.575 79.6133 453.749 73.64C456.922 67.6667 461.355 63.0933 467.049 59.92C472.835 56.6533 479.462 55.02 486.929 55.02C494.209 55.02 500.649 56.6067 506.249 59.78C511.849 62.9533 516.142 67.34 519.129 72.94C522.209 78.4467 523.749 84.7 523.749 91.7ZM510.589 89.04C510.589 84.1867 509.515 80.0333 507.369 76.58C505.222 73.0333 502.282 70.3733 498.549 68.6C494.909 66.7333 490.849 65.8 486.369 65.8C479.929 65.8 474.422 67.8533 469.849 71.96C465.369 76.0667 462.802 81.76 462.149 89.04H510.589ZM556.105 66.78V112C556.105 115.733 556.898 118.393 558.485 119.98C560.072 121.473 562.825 122.22 566.745 122.22H576.125V133H564.645C557.552 133 552.232 131.367 548.685 128.1C545.138 124.833 543.365 119.467 543.365 112V66.78H533.425V56.28H543.365V36.96H556.105V56.28H576.125V66.78H556.105ZM586.801 84.14C586.801 74.62 588.948 66.08 593.241 58.52C597.535 50.8667 603.368 44.8933 610.741 40.6C618.208 36.3067 626.468 34.16 635.521 34.16C646.161 34.16 655.448 36.7267 663.381 41.86C671.315 46.9933 677.101 54.2733 680.741 63.7H665.481C662.775 57.82 658.855 53.2933 653.721 50.12C648.681 46.9467 642.615 45.36 635.521 45.36C628.708 45.36 622.595 46.9467 617.181 50.12C611.768 53.2933 607.521 57.82 604.441 63.7C601.361 69.4867 599.821 76.3 599.821 84.14C599.821 91.8867 601.361 98.7 604.441 104.58C607.521 110.367 611.768 114.847 617.181 118.02C622.595 121.193 628.708 122.78 635.521 122.78C642.615 122.78 648.681 121.24 653.721 118.16C658.855 114.987 662.775 110.46 665.481 104.58H680.741C677.101 113.913 671.315 121.147 663.381 126.28C655.448 131.32 646.161 133.84 635.521 133.84C626.468 133.84 618.208 131.74 610.741 127.54C603.368 123.247 597.535 117.32 593.241 109.76C588.948 102.2 586.801 93.66 586.801 84.14ZM694.946 94.36C694.946 86.52 696.532 79.66 699.706 73.78C702.879 67.8067 707.219 63.1867 712.726 59.92C718.326 56.6533 724.532 55.02 731.346 55.02C738.066 55.02 743.899 56.4667 748.846 59.36C753.792 62.2533 757.479 65.8933 759.906 70.28V56.28H772.786V133H759.906V118.72C757.386 123.2 753.606 126.933 748.566 129.92C743.619 132.813 737.832 134.26 731.206 134.26C724.392 134.26 718.232 132.58 712.726 129.22C707.219 125.86 702.879 121.147 699.706 115.08C696.532 109.013 694.946 102.107 694.946 94.36ZM759.906 94.5C759.906 88.7133 758.739 83.6733 756.406 79.38C754.072 75.0867 750.899 71.82 746.886 69.58C742.966 67.2467 738.626 66.08 733.866 66.08C729.106 66.08 724.766 67.2 720.846 69.44C716.926 71.68 713.799 74.9467 711.466 79.24C709.132 83.5333 707.966 88.5733 707.966 94.36C707.966 100.24 709.132 105.373 711.466 109.76C713.799 114.053 716.926 117.367 720.846 119.7C724.766 121.94 729.106 123.06 733.866 123.06C738.626 123.06 742.966 121.94 746.886 119.7C750.899 117.367 754.072 114.053 756.406 109.76C758.739 105.373 759.906 100.287 759.906 94.5ZM821.475 134.26C815.595 134.26 810.322 133.28 805.655 131.32C800.988 129.267 797.302 126.467 794.595 122.92C791.888 119.28 790.395 115.127 790.115 110.46H803.275C803.648 114.287 805.422 117.413 808.595 119.84C811.862 122.267 816.108 123.48 821.335 123.48C826.188 123.48 830.015 122.407 832.815 120.26C835.615 118.113 837.015 115.407 837.015 112.14C837.015 108.78 835.522 106.307 832.535 104.72C829.548 103.04 824.928 101.407 818.675 99.82C812.982 98.3267 808.315 96.8333 804.675 95.34C801.128 93.7533 798.048 91.4667 795.435 88.48C792.915 85.4 791.655 81.3867 791.655 76.44C791.655 72.52 792.822 68.9267 795.155 65.66C797.488 62.3933 800.802 59.8267 805.095 57.96C809.388 56 814.288 55.02 819.795 55.02C828.288 55.02 835.148 57.1667 840.375 61.46C845.602 65.7533 848.402 71.6333 848.775 79.1H836.035C835.755 75.0867 834.122 71.8667 831.135 69.44C828.242 67.0133 824.322 65.8 819.375 65.8C814.802 65.8 811.162 66.78 808.455 68.74C805.748 70.7 804.395 73.2667 804.395 76.44C804.395 78.96 805.188 81.06 806.775 82.74C808.455 84.3267 810.508 85.6333 812.935 86.66C815.455 87.5933 818.908 88.6667 823.295 89.88C828.802 91.3733 833.282 92.8667 836.735 94.36C840.188 95.76 843.128 97.9067 845.555 100.8C848.075 103.693 849.382 107.473 849.475 112.14C849.475 116.34 848.308 120.12 845.975 123.48C843.642 126.84 840.328 129.5 836.035 131.46C831.835 133.327 826.982 134.26 821.475 134.26ZM883 66.78V112C883 115.733 883.793 118.393 885.38 119.98C886.966 121.473 889.72 122.22 893.64 122.22H903.02V133H891.54C884.446 133 879.126 131.367 875.58 128.1C872.033 124.833 870.26 119.467 870.26 112V66.78H860.32V56.28H870.26V36.96H883V56.28H903.02V66.78H883Z" fill="white"/>
<path d="M1055.36 18.82V133H1040.35V47.86L1002.4 133H991.835L953.72 47.695V133H938.705V18.82H954.875L997.115 113.2L1039.36 18.82H1055.36ZM1163.32 84.325C1163.32 87.185 1163.16 90.21 1162.83 93.4H1090.56C1091.11 102.31 1094.13 109.295 1099.63 114.355C1105.24 119.305 1112.01 121.78 1119.93 121.78C1126.42 121.78 1131.81 120.295 1136.1 117.325C1140.5 114.245 1143.58 110.175 1145.34 105.115H1161.51C1159.09 113.805 1154.25 120.9 1146.99 126.4C1139.73 131.79 1130.71 134.485 1119.93 134.485C1111.35 134.485 1103.65 132.56 1096.83 128.71C1090.12 124.86 1084.84 119.415 1080.99 112.375C1077.14 105.225 1075.21 96.975 1075.21 87.625C1075.21 78.275 1077.08 70.08 1080.82 63.04C1084.56 56 1089.79 50.61 1096.5 46.87C1103.32 43.02 1111.13 41.095 1119.93 41.095C1128.51 41.095 1136.1 42.965 1142.7 46.705C1149.3 50.445 1154.36 55.615 1157.88 62.215C1161.51 68.705 1163.32 76.075 1163.32 84.325ZM1147.81 81.19C1147.81 75.47 1146.55 70.575 1144.02 66.505C1141.49 62.325 1138.02 59.19 1133.62 57.1C1129.33 54.9 1124.55 53.8 1119.27 53.8C1111.68 53.8 1105.19 56.22 1099.8 61.06C1094.52 65.9 1091.49 72.61 1090.72 81.19H1147.81ZM1265.64 84.325C1265.64 87.185 1265.48 90.21 1265.15 93.4H1192.88C1193.43 102.31 1196.45 109.295 1201.95 114.355C1207.56 119.305 1214.33 121.78 1222.25 121.78C1228.74 121.78 1234.13 120.295 1238.42 117.325C1242.82 114.245 1245.9 110.175 1247.66 105.115H1263.83C1261.41 113.805 1256.57 120.9 1249.31 126.4C1242.05 131.79 1233.03 134.485 1222.25 134.485C1213.67 134.485 1205.97 132.56 1199.15 128.71C1192.44 124.86 1187.16 119.415 1183.31 112.375C1179.46 105.225 1177.53 96.975 1177.53 87.625C1177.53 78.275 1179.4 70.08 1183.14 63.04C1186.88 56 1192.11 50.61 1198.82 46.87C1205.64 43.02 1213.45 41.095 1222.25 41.095C1230.83 41.095 1238.42 42.965 1245.02 46.705C1251.62 50.445 1256.68 55.615 1260.2 62.215C1263.83 68.705 1265.64 76.075 1265.64 84.325ZM1250.13 81.19C1250.13 75.47 1248.87 70.575 1246.34 66.505C1243.81 62.325 1240.34 59.19 1235.94 57.1C1231.65 54.9 1226.87 53.8 1221.59 53.8C1214 53.8 1207.51 56.22 1202.12 61.06C1196.84 65.9 1193.81 72.61 1193.04 81.19H1250.13ZM1303.78 54.955V108.25C1303.78 112.65 1304.71 115.785 1306.58 117.655C1308.45 119.415 1311.7 120.295 1316.32 120.295H1327.37V133H1313.84C1305.48 133 1299.21 131.075 1295.03 127.225C1290.85 123.375 1288.76 117.05 1288.76 108.25V54.955H1277.05V42.58H1288.76V19.81H1303.78V42.58H1327.37V54.955H1303.78Z" fill="#FF6352"/>
</g>
<defs>
<clipPath id="clip0_1_8">
<rect width="1393" height="169" fill="white"/>
</clipPath>
</defs>
</svg>
